<?xml version="1.0" encoding="UTF-8" standalone="no"?>
<!DOCTYPE svg PUBLIC "-//W3C//DTD SVG 1.1//EN"
 "http://www.w3.org/Graphics/SVG/1.1/DTD/svg11.dtd">
<!-- Generated by graphviz version 2.47.0 (20210316.0004)
 -->
<!-- Pages: 1 -->
<svg width="660pt" height="152pt"
 viewBox="0.00 0.00 660.00 152.00" xmlns="http://www.w3.org/2000/svg" xmlns:xlink="http://www.w3.org/1999/xlink">
<g id="graph0" class="graph" transform="scale(1 1) rotate(0) translate(4 148)">
<polygon fill="white" stroke="transparent" points="-4,4 -4,-148 656,-148 656,4 -4,4"/>
<!-- e -->
<g id="node1" class="node">
<title>e</title>
<path fill="#54ff9f" stroke="black" d="M90,-116C90,-116 12,-116 12,-116 6,-116 0,-110 0,-104 0,-104 0,-92 0,-92 0,-86 6,-80 12,-80 12,-80 90,-80 90,-80 96,-80 102,-86 102,-92 102,-92 102,-104 102,-104 102,-110 96,-116 90,-116"/>
<text text-anchor="start" x="8" y="-95.3" font-family="Times New Roman,serif" font-size="14.00">Edge Record </text>
<text text-anchor="start" x="87" y="-95.3" font-family="Times New Roman,serif" font-style="italic" font-size="14.00">e</text>
</g>
<!-- compBurst -->
<g id="node2" class="node">
<title>compBurst</title>
<path fill="tomato" stroke="black" d="M235.5,-144C235.5,-144 155.5,-144 155.5,-144 149.5,-144 143.5,-138 143.5,-132 143.5,-132 143.5,-120 143.5,-120 143.5,-114 149.5,-108 155.5,-108 155.5,-108 235.5,-108 235.5,-108 241.5,-108 247.5,-114 247.5,-120 247.5,-120 247.5,-132 247.5,-132 247.5,-138 241.5,-144 235.5,-144"/>
<text text-anchor="middle" x="195.5" y="-122.3" font-family="Times New Roman,serif" font-size="14.00">Burst Detection</text>
</g>
<!-- e&#45;&gt;compBurst -->
<g id="edge1" class="edge">
<title>e&#45;&gt;compBurst</title>
<path fill="none" stroke="black" d="M102.24,-107.87C112.32,-109.85 123.02,-111.95 133.42,-114"/>
<polygon fill="black" stroke="black" points="132.78,-117.44 143.27,-115.93 134.13,-110.57 132.78,-117.44"/>
</g>
<!-- compPattern -->
<g id="node3" class="node">
<title>compPattern</title>
<path fill="tomato" stroke="black" d="M240,-90C240,-90 151,-90 151,-90 145,-90 139,-84 139,-78 139,-78 139,-66 139,-66 139,-60 145,-54 151,-54 151,-54 240,-54 240,-54 246,-54 252,-60 252,-66 252,-66 252,-78 252,-78 252,-84 246,-90 240,-90"/>
<text text-anchor="middle" x="195.5" y="-68.3" font-family="Times New Roman,serif" font-size="14.00">Pattern Detection</text>
</g>
<!-- e&#45;&gt;compPattern -->
<g id="edge2" class="edge">
<title>e&#45;&gt;compPattern</title>
<path fill="none" stroke="black" d="M102.24,-88.83C110.86,-87.26 119.92,-85.61 128.87,-83.97"/>
<polygon fill="black" stroke="black" points="129.68,-87.38 138.89,-82.15 128.43,-80.5 129.68,-87.38"/>
</g>
<!-- scoreFreq -->
<g id="node4" class="node">
<title>scoreFreq</title>
<path fill="gold" stroke="black" d="M431,-144C431,-144 335,-144 335,-144 329,-144 323,-138 323,-132 323,-132 323,-120 323,-120 323,-114 329,-108 335,-108 335,-108 431,-108 431,-108 437,-108 443,-114 443,-120 443,-120 443,-132 443,-132 443,-138 437,-144 431,-144"/>
<text text-anchor="start" x="331" y="-123.3" font-family="Times New Roman,serif" font-size="14.00">Frequency Score </text>
<text text-anchor="start" x="431" y="-123.3" font-family="Times New Roman,serif" font-style="italic" font-size="14.00">f</text>
</g>
<!-- compBurst&#45;&gt;scoreFreq -->
<g id="edge3" class="edge">
<title>compBurst&#45;&gt;scoreFreq</title>
<path fill="none" stroke="black" d="M247.68,-126C267.77,-126 291.14,-126 312.7,-126"/>
<polygon fill="black" stroke="black" points="312.79,-129.5 322.79,-126 312.79,-122.5 312.79,-129.5"/>
<text text-anchor="start" x="270" y="-129.8" font-family="Times New Roman,serif" font-size="14.00">G&#45;test</text>
</g>
<!-- scoreWidth -->
<g id="node5" class="node">
<title>scoreWidth</title>
<path fill="gold" stroke="black" d="M422,-90C422,-90 344,-90 344,-90 338,-90 332,-84 332,-78 332,-78 332,-66 332,-66 332,-60 338,-54 344,-54 344,-54 422,-54 422,-54 428,-54 434,-60 434,-66 434,-66 434,-78 434,-78 434,-84 428,-90 422,-90"/>
<text text-anchor="start" x="340" y="-69.3" font-family="Times New Roman,serif" font-size="14.00">Width Score </text>
<text text-anchor="start" x="416" y="-69.3" font-family="Times New Roman,serif" font-style="italic" font-size="14.00">w</text>
</g>
<!-- compPattern&#45;&gt;scoreWidth -->
<g id="edge4" class="edge">
<title>compPattern&#45;&gt;scoreWidth</title>
<path fill="none" stroke="black" d="M252.16,-72C274.09,-72 299.34,-72 321.7,-72"/>
<polygon fill="black" stroke="black" points="321.75,-75.5 331.75,-72 321.75,-68.5 321.75,-75.5"/>
<text text-anchor="start" x="270" y="-75.8" font-family="Times New Roman,serif" font-size="14.00">G&#45;test</text>
</g>
<!-- scoreGap -->
<g id="node6" class="node">
<title>scoreGap</title>
<path fill="gold" stroke="black" d="M415.5,-36C415.5,-36 350.5,-36 350.5,-36 344.5,-36 338.5,-30 338.5,-24 338.5,-24 338.5,-12 338.5,-12 338.5,-6 344.5,0 350.5,0 350.5,0 415.5,0 415.5,0 421.5,0 427.5,-6 427.5,-12 427.5,-12 427.5,-24 427.5,-24 427.5,-30 421.5,-36 415.5,-36"/>
<text text-anchor="start" x="346.5" y="-15.3" font-family="Times New Roman,serif" font-size="14.00">Gap Score </text>
<text text-anchor="start" x="411.5" y="-15.3" font-family="Times New Roman,serif" font-style="italic" font-size="14.00">g</text>
</g>
<!-- compPattern&#45;&gt;scoreGap -->
<g id="edge5" class="edge">
<title>compPattern:s&#45;&gt;scoreGap</title>
<path fill="none" stroke="black" d="M195.5,-53C195.5,1.43 273.18,0.18 328.27,-7.55"/>
<polygon fill="black" stroke="black" points="327.86,-11.03 338.27,-9.06 328.91,-4.1 327.86,-11.03"/>
<text text-anchor="start" x="270" y="-8.8" font-family="Times New Roman,serif" font-size="14.00">G&#45;test</text>
</g>
<!-- scoreFinal -->
<g id="node7" class="node">
<title>scoreFinal</title>
<path fill="turquoise" stroke="black" d="M640,-90C640,-90 543,-90 543,-90 537,-90 531,-84 531,-78 531,-78 531,-66 531,-66 531,-60 537,-54 543,-54 543,-54 640,-54 640,-54 646,-54 652,-60 652,-66 652,-66 652,-78 652,-78 652,-84 646,-90 640,-90"/>
<text text-anchor="start" x="539" y="-69.3" font-family="Times New Roman,serif" font-size="14.00">Anomaly Score </text>
<text text-anchor="start" x="630" y="-69.3" font-family="Times New Roman,serif" font-style="italic" font-size="14.00">Sc</text>
</g>
<!-- scoreFreq&#45;&gt;scoreFinal -->
<g id="edge6" class="edge">
<title>scoreFreq:e&#45;&gt;scoreFinal:nw</title>
<path fill="none" stroke="black" d="M443,-126C481.63,-126 498.2,-120.89 523.58,-97.19"/>
<polygon fill="black" stroke="black" points="526.25,-99.47 531,-90 521.38,-94.45 526.25,-99.47"/>
<text text-anchor="start" x="461" y="-129.8" font-family="Times New Roman,serif" font-size="14.00">Weight </text>
<text text-anchor="start" x="505" y="-129.8" font-family="Times New Roman,serif" font-style="italic" font-size="14.00">α</text>
</g>
<!-- scoreWidth&#45;&gt;scoreFinal -->
<g id="edge7" class="edge">
<title>scoreWidth:e&#45;&gt;scoreFinal:w</title>
<path fill="none" stroke="black" d="M435,-72C474,-72 486.26,-72 520.67,-72"/>
<polygon fill="black" stroke="black" points="521,-75.5 531,-72 521,-68.5 521,-75.5"/>
<text text-anchor="start" x="461.5" y="-76.8" font-family="Times New Roman,serif" font-size="14.00">Weight </text>
<text text-anchor="start" x="505.5" y="-76.8" font-family="Times New Roman,serif" font-style="italic" font-size="14.00">β</text>
</g>
<!-- scoreGap&#45;&gt;scoreFinal -->
<g id="edge8" class="edge">
<title>scoreGap:e&#45;&gt;scoreFinal:sw</title>
<path fill="none" stroke="black" d="M429,-18C473.7,-18 494.22,-19.59 524.11,-46.92"/>
<polygon fill="black" stroke="black" points="521.86,-49.61 531.5,-54 526.7,-44.55 521.86,-49.61"/>
<text text-anchor="start" x="462" y="-42.8" font-family="Times New Roman,serif" font-size="14.00">Weight </text>
<text text-anchor="start" x="506" y="-42.8" font-family="Times New Roman,serif" font-style="italic" font-size="14.00">γ</text>
</g>
</g>
</svg>
